<svg id="Layer_1" data-name="Layer 1" xmlns="http://www.w3.org/2000/svg" viewBox="0 0 128 127.89"><defs><style>.cls-1{fill:none;}.cls-2{fill:#fff;}</style></defs><rect class="cls-1" x="64" y="41.81" width="4.75" height="59.7"/><rect class="cls-1" x="84.72" y="41.81" width="11.32" height="59.7"/><rect class="cls-1" x="58.99" y="41.81" width="5.01" height="59.7"/><rect class="cls-1" x="31.97" y="41.81" width="11.05" height="59.7"/><path class="cls-2" d="M64,41.81v-10H6.88V41.81H16v59.7H6.88v10H64v-10H59V41.81Zm-21,59.7H32V41.81H43Z"/><rect class="cls-2" y="113.84" width="64" height="13.87"/><polygon class="cls-2" points="7.44 27.45 64 27.45 64 0.75 7.44 27.45"/><path class="cls-2" d="M121.12,101.51H112V41.81h9.11v-10H64V41.81h4.75v59.7H64v10h57.12Zm-36.4-59.7H96v59.7H84.72Z"/><rect class="cls-2" x="64" y="113.84" width="64" height="13.87"/><polygon class="cls-2" points="65.22 0.18 64 0.75 64 27.45 120.57 27.45 65.22 0.18"/></svg>