<svg id="Layer_1" data-name="Layer 1" xmlns="http://www.w3.org/2000/svg" viewBox="0 0 128 127.89"><defs><style>.cls-1{fill:#fff;}</style></defs><path class="cls-1" d="M68,37.68a3.62,3.62,0,0,0-3.7,3.62V67.94H40.81a3.66,3.66,0,1,0,0,7.32H68a3.63,3.63,0,0,0,3.62-3.7V41.3A3.62,3.62,0,0,0,68,37.68ZM64,0A63.95,63.95,0,1,1,0,63.94,64,64,0,0,1,64,0Zm48,63.94a3.85,3.85,0,0,1,3.89-3.89h7A57.84,57.84,0,0,0,116.93,38l-6.09,3.43a3.86,3.86,0,0,1-2,.58,3.92,3.92,0,0,1-3.44-2,4,4,0,0,1,1.43-5.33L113,31.11A59.16,59.16,0,0,0,96.85,14.84L93.24,21a3.82,3.82,0,0,1-3.32,2,3.77,3.77,0,0,1-2-.57,3.82,3.82,0,0,1-1.44-5.31L90,11A59.41,59.41,0,0,0,68,5.05v7a4,4,0,0,1-4,4,3.92,3.92,0,0,1-3.9-4v-7C50,5.71,35.21,6.18,41.48,17A4,4,0,0,1,40,22.45,3.86,3.86,0,0,1,34.64,21l-3.53-6.18A58.73,58.73,0,0,0,14.92,31.11L21,34.63A3.83,3.83,0,0,1,22.47,40,3.77,3.77,0,0,1,19,42a3.31,3.31,0,0,1-1.9-.58L11.05,38A57.51,57.51,0,0,0,5.13,60.05h6.94a3.9,3.9,0,1,1,0,7.79H5.13A58.29,58.29,0,0,0,11.05,90l6.09-3.5A3.89,3.89,0,1,1,21,93.25l-6.09,3.62c5.64,8.37,13.43,20.93,19.72,10A3.87,3.87,0,0,1,40,105.43a4,4,0,0,1,1.53,5.41L38,116.94a61,61,0,0,0,22.08,5.9v-7a3.92,3.92,0,0,1,3.9-4,4,4,0,0,1,4,4v7A61.08,61.08,0,0,0,90,116.94l-3.54-6.1a3.91,3.91,0,0,1,1.44-5.41,3.85,3.85,0,0,1,5.31,1.43l3.61,6.19A59,59,0,0,0,113,96.87l-6.15-3.62a4,4,0,0,1-1.43-5.34,3.89,3.89,0,0,1,5.41-1.4l6.09,3.5a58.63,58.63,0,0,0,5.9-22.17h-7a3.86,3.86,0,0,1-3.89-3.9Z"/></svg>