<svg xmlns="http://www.w3.org/2000/svg" viewBox="0 0 86.36 127.04"><defs><style>.cls-1{fill:#fff;}</style></defs><g id="Layer_2" data-name="Layer 2"><g id="Layer_1-2" data-name="Layer 1"><path class="cls-1" d="M53,127H31.51A3.65,3.65,0,0,1,27.83,124c-.18-1.31-.09-2.64-.19-4a15.81,15.81,0,0,0-2.3-7.62c-1.33-2-2.73-4.05-4.11-6.07-2.36-3.45-4.76-6.88-7.11-10.35-2-3-3.94-5.94-5.95-8.88-1.58-2.31-3.1-4.67-4.85-6.84-3-3.66-3-10.53,1.17-13.89a10.16,10.16,0,0,1,9.08-1.9c1.6.35,3.05,1.64,4.43,2.68a28.9,28.9,0,0,1,2.7,2.72c.19.19.61.4.75.32a1.14,1.14,0,0,0,.47-.8c0-3.19,0-6.39,0-9.58,0-9.43,0-18.85,0-28.28,0-6.13,7.15-10.64,13-8.34a10.39,10.39,0,0,1,6.49,9.63c0,2.84,0,5.69,0,8.53,0,1.42.29,1.66,1.58,1.11a9.4,9.4,0,0,1,8,.35,9.64,9.64,0,0,1,4.35,4.58c.58,1.19.94,1.35,2.1.82A9.86,9.86,0,0,1,69.31,51a10.47,10.47,0,0,1,1.25,2.21c.44,1,.84,1.29,1.82.86a9.71,9.71,0,0,1,10.26,1.1,9.18,9.18,0,0,1,3.65,7.49c.07,9.43.14,18.86-.06,28.28,0,2.21-1,4.44-1.78,6.59-1.2,3.48-2.55,6.9-3.83,10.35a32.09,32.09,0,0,0-1.5,4.14,24,24,0,0,0-.45,4.4c-.07,2,0,4,0,6.08A4.17,4.17,0,0,1,74.05,127C67,127,60,127,53,127ZM26.3,81.61l-.34.11-2.85-2.85c-3-3-5.9-6-8.89-8.91a5.22,5.22,0,0,0-6.48-.42,5.09,5.09,0,0,0-1.43,6.74c1.51,2.43,3.22,4.74,4.85,7.1,2,2.89,4.06,5.77,6.05,8.68,1.75,2.57,3.4,5.19,5.15,7.76s3.74,5.32,5.55,8a24.22,24.22,0,0,1,2.59,4.52,22.34,22.34,0,0,1,1.76,8.74c0,1.09.53,1.54,1.6,1.5,1.24-.06,2.49-.08,3.74-.07H72.31c1.5,0,1.76-.27,1.78-1.77,0-1.76-.13-3.52,0-5.26a38.16,38.16,0,0,1,1.07-5.7c.5-1.95,1.18-3.86,1.87-5.75,1-2.59,2-5.15,3-7.73.8-2.13,1.84-4.17,1.82-6.56-.08-8.89-.09-17.77-.12-26.65a5.12,5.12,0,0,0-1.58-3.87A5,5,0,0,0,74.9,58a5.38,5.38,0,0,0-3.57,5c.16,3.22,0,6.46,0,9.69,0,.47-.22,1.29-.43,1.33a21.12,21.12,0,0,1-3.47.15c-.16,0-.39-.46-.44-.73a6.51,6.51,0,0,1-.11-1.4c0-4.67,0-9.35,0-14a5.65,5.65,0,0,0-3.22-5.59c-3-1.51-7.09.64-7.22,4-.14,3.66-.1,7.33-.12,11,0,3.08,0,3-3.08,3.06-1.06,0-1.45-.41-1.44-1.46.05-5.61.09-11.22.06-16.83a5.94,5.94,0,0,0-1.41-4c-1.23-1.43-3.84-2.26-5.29-1.71-2.48.94-3.81,2.8-3.77,5,.11,4.91,0,9.82,0,14.73,0,2.18,0,2.18-2.11,2.16a5.81,5.81,0,0,0-.59,0c-1.84.14-1.85.15-1.85-1.76q0-16.59,0-33.19a9.25,9.25,0,0,0-.47-2.85,5.07,5.07,0,0,0-4.43-3.45,5.28,5.28,0,0,0-4.73,2.63,6.9,6.9,0,0,0-.65,2.78q-.07,23.84-.06,47.68A14,14,0,0,1,26.3,81.61Z"></path><path class="cls-1" d="M17.21,60.16A31.83,31.83,0,0,1,8.9,54.07a28.43,28.43,0,0,1-6.4-9.64A31.81,31.81,0,0,1,.3,27.89a32.84,32.84,0,0,1,2.81-9.81A28.75,28.75,0,0,1,12.18,6.91a35.5,35.5,0,0,1,6.62-4C24.42.55,30.28-.83,36.42.55a48.45,48.45,0,0,1,7.82,2.19,30,30,0,0,1,11.42,8.42,33.61,33.61,0,0,1,6,10.4C63.55,26.68,63.46,32,63,37.22c-.19,2.09-1.1,4.12-1.69,6.17a.88.88,0,0,1-.23.4c-1,.68-1.7-.16-2.41-.57-.48-.27-1.37-.4-1-1.51a27.29,27.29,0,0,0,1.67-12.48,27.66,27.66,0,0,0-3.23-10.41A29.35,29.35,0,0,0,48.56,9.9,27.26,27.26,0,0,0,29.92,4.22,25.65,25.65,0,0,0,18.39,7.56,28.22,28.22,0,0,0,7.21,18.94,24.88,24.88,0,0,0,4.3,27.48,42.67,42.67,0,0,0,4.48,37a20.87,20.87,0,0,0,2.43,7.36,28.78,28.78,0,0,0,9.25,10.58,2.46,2.46,0,0,1,1.16,2.35C17.28,58.17,17.25,59.07,17.21,60.16Z"></path><path class="cls-1" d="M17,48.45A14.59,14.59,0,0,1,12.3,43,53,53,0,0,1,10,36.82a8.32,8.32,0,0,1-.36-2.53c0-3.15-.17-6.3.91-9.35a23,23,0,0,1,6.69-10A21.19,21.19,0,0,1,30.11,9.68a23,23,0,0,1,8.38,1,21.87,21.87,0,0,1,11.16,8A21.37,21.37,0,0,1,54,32.73a48.7,48.7,0,0,1-.93,6c-.14.75-.82.93-1.56.47l-1.37-.85a1.38,1.38,0,0,1-.72-1.72c1.58-6.8,0-12.83-4.92-17.79a18.2,18.2,0,0,0-8.2-4.68A17.27,17.27,0,0,0,21.11,17a18,18,0,0,0-7.81,14.1,15.61,15.61,0,0,0,2,8.86A21.72,21.72,0,0,1,17,42.87C17.67,44.69,17.3,46.57,17,48.45Z"></path></g></g></svg>